<mxfile host="app.diagrams.net" modified="2021-11-23T08:55:22.289Z" agent="5.0 (Windows NT 10.0; Win64; x64) AppleWebKit/537.36 (KHTML, like Gecko) Chrome/96.0.4664.45 Safari/537.36" etag="q263Z90ukcr2oDtFO0x9" version="15.8.2" type="github">
  <diagram id="C5RBs43oDa-KdzZeNtuy" name="Page-1">
    <mxGraphModel dx="1038" dy="532" grid="1" gridSize="10" guides="1" tooltips="1" connect="1" arrows="1" fold="1" page="1" pageScale="1" pageWidth="827" pageHeight="1169" math="0" shadow="0">
      <root>
        <mxCell id="WIyWlLk6GJQsqaUBKTNV-0" />
        <mxCell id="WIyWlLk6GJQsqaUBKTNV-1" parent="WIyWlLk6GJQsqaUBKTNV-0" />
        <mxCell id="R-zWGBTZfVwNPA_6gyD4-6" value="" style="edgeStyle=orthogonalEdgeStyle;rounded=0;orthogonalLoop=1;jettySize=auto;html=1;fontSize=12;" parent="WIyWlLk6GJQsqaUBKTNV-1" source="R-zWGBTZfVwNPA_6gyD4-1" target="R-zWGBTZfVwNPA_6gyD4-5" edge="1">
          <mxGeometry relative="1" as="geometry" />
        </mxCell>
        <mxCell id="R-zWGBTZfVwNPA_6gyD4-14" value="" style="edgeStyle=orthogonalEdgeStyle;rounded=0;orthogonalLoop=1;jettySize=auto;html=1;fontSize=12;" parent="WIyWlLk6GJQsqaUBKTNV-1" source="R-zWGBTZfVwNPA_6gyD4-1" target="R-zWGBTZfVwNPA_6gyD4-13" edge="1">
          <mxGeometry relative="1" as="geometry" />
        </mxCell>
        <mxCell id="R-zWGBTZfVwNPA_6gyD4-1" value="&lt;b&gt;0x06 &amp;amp; 0x05&lt;br&gt;&lt;/b&gt;Write Enable &amp;amp; RDSR" style="rounded=1;whiteSpace=wrap;html=1;fontSize=12;glass=0;strokeWidth=1;shadow=0;" parent="WIyWlLk6GJQsqaUBKTNV-1" vertex="1">
          <mxGeometry x="190" y="90" width="130" height="40" as="geometry" />
        </mxCell>
        <mxCell id="R-zWGBTZfVwNPA_6gyD4-5" value="&lt;b&gt;0x02&lt;/b&gt;&lt;br&gt;WEL = 1" style="ellipse;whiteSpace=wrap;html=1;rounded=1;shadow=0;strokeWidth=1;glass=0;" parent="WIyWlLk6GJQsqaUBKTNV-1" vertex="1">
          <mxGeometry x="355" y="85" width="90" height="50" as="geometry" />
        </mxCell>
        <mxCell id="R-zWGBTZfVwNPA_6gyD4-13" value="&lt;b&gt;0x20&amp;nbsp;&lt;/b&gt;&lt;b&gt;&amp;amp; Addr 3Byte&lt;/b&gt;&lt;br&gt;Sector Erase&amp;nbsp;" style="whiteSpace=wrap;html=1;rounded=1;shadow=0;strokeWidth=1;glass=0;" parent="WIyWlLk6GJQsqaUBKTNV-1" vertex="1">
          <mxGeometry x="190" y="150" width="130" height="40" as="geometry" />
        </mxCell>
        <mxCell id="t_iCc2SrbTNAFNuz0VWI-24" style="edgeStyle=orthogonalEdgeStyle;rounded=0;orthogonalLoop=1;jettySize=auto;html=1;fontSize=11;" parent="WIyWlLk6GJQsqaUBKTNV-1" source="R-zWGBTZfVwNPA_6gyD4-32" edge="1">
          <mxGeometry relative="1" as="geometry">
            <mxPoint x="565" y="240" as="targetPoint" />
          </mxGeometry>
        </mxCell>
        <mxCell id="R-zWGBTZfVwNPA_6gyD4-32" value="&lt;b style=&quot;font-size: 16px&quot;&gt;Data Write&lt;br&gt;&lt;/b&gt;&lt;u&gt;256Byte&lt;/u&gt;" style="whiteSpace=wrap;html=1;rounded=1;shadow=0;strokeWidth=1;glass=0;fillColor=#f8cecc;strokeColor=#b85450;" parent="WIyWlLk6GJQsqaUBKTNV-1" vertex="1">
          <mxGeometry x="500" y="150" width="130" height="60" as="geometry" />
        </mxCell>
        <mxCell id="t_iCc2SrbTNAFNuz0VWI-2" value="SR = 0x00" style="rounded=0;html=1;jettySize=auto;orthogonalLoop=1;fontSize=11;endArrow=block;endFill=0;endSize=8;strokeWidth=1;shadow=0;labelBackgroundColor=none;edgeStyle=orthogonalEdgeStyle;entryX=0.5;entryY=0;entryDx=0;entryDy=0;" parent="WIyWlLk6GJQsqaUBKTNV-1" source="t_iCc2SrbTNAFNuz0VWI-4" target="t_iCc2SrbTNAFNuz0VWI-13" edge="1">
          <mxGeometry x="0.2004" y="30" relative="1" as="geometry">
            <mxPoint as="offset" />
            <mxPoint x="255" y="340" as="targetPoint" />
          </mxGeometry>
        </mxCell>
        <mxCell id="t_iCc2SrbTNAFNuz0VWI-3" value="SR = 0x03" style="edgeStyle=orthogonalEdgeStyle;rounded=0;html=1;jettySize=auto;orthogonalLoop=1;fontSize=11;endArrow=block;endFill=0;endSize=8;strokeWidth=1;shadow=0;labelBackgroundColor=none;" parent="WIyWlLk6GJQsqaUBKTNV-1" source="t_iCc2SrbTNAFNuz0VWI-4" target="t_iCc2SrbTNAFNuz0VWI-6" edge="1">
          <mxGeometry x="-0.1429" y="10" relative="1" as="geometry">
            <mxPoint as="offset" />
          </mxGeometry>
        </mxCell>
        <mxCell id="t_iCc2SrbTNAFNuz0VWI-4" value="&lt;b&gt;0x05&lt;/b&gt;&lt;br&gt;RDSR" style="rhombus;whiteSpace=wrap;html=1;shadow=0;fontFamily=Helvetica;fontSize=12;align=center;strokeWidth=1;spacing=6;spacingTop=-4;fillColor=#f5f5f5;fontColor=#333333;strokeColor=#666666;" parent="WIyWlLk6GJQsqaUBKTNV-1" vertex="1">
          <mxGeometry x="205" y="230" width="100" height="80" as="geometry" />
        </mxCell>
        <mxCell id="t_iCc2SrbTNAFNuz0VWI-5" style="edgeStyle=orthogonalEdgeStyle;rounded=0;orthogonalLoop=1;jettySize=auto;html=1;entryX=0.5;entryY=0;entryDx=0;entryDy=0;fontSize=12;exitX=0.5;exitY=0;exitDx=0;exitDy=0;" parent="WIyWlLk6GJQsqaUBKTNV-1" source="t_iCc2SrbTNAFNuz0VWI-6" target="t_iCc2SrbTNAFNuz0VWI-4" edge="1">
          <mxGeometry relative="1" as="geometry">
            <Array as="points">
              <mxPoint x="410" y="210" />
              <mxPoint x="255" y="210" />
            </Array>
          </mxGeometry>
        </mxCell>
        <mxCell id="t_iCc2SrbTNAFNuz0VWI-6" value="Repeat" style="rounded=1;whiteSpace=wrap;html=1;fontSize=12;glass=0;strokeWidth=1;shadow=0;" parent="WIyWlLk6GJQsqaUBKTNV-1" vertex="1">
          <mxGeometry x="375" y="250" width="70" height="40" as="geometry" />
        </mxCell>
        <mxCell id="t_iCc2SrbTNAFNuz0VWI-7" value="" style="edgeStyle=orthogonalEdgeStyle;rounded=0;orthogonalLoop=1;jettySize=auto;html=1;fontSize=12;exitX=0.5;exitY=1;exitDx=0;exitDy=0;" parent="WIyWlLk6GJQsqaUBKTNV-1" source="R-zWGBTZfVwNPA_6gyD4-13" target="t_iCc2SrbTNAFNuz0VWI-4" edge="1">
          <mxGeometry relative="1" as="geometry">
            <mxPoint x="255" y="210" as="sourcePoint" />
          </mxGeometry>
        </mxCell>
        <mxCell id="t_iCc2SrbTNAFNuz0VWI-12" value="" style="edgeStyle=orthogonalEdgeStyle;rounded=0;orthogonalLoop=1;jettySize=auto;html=1;fontSize=12;entryX=0.5;entryY=0;entryDx=0;entryDy=0;" parent="WIyWlLk6GJQsqaUBKTNV-1" source="t_iCc2SrbTNAFNuz0VWI-13" target="t_iCc2SrbTNAFNuz0VWI-15" edge="1">
          <mxGeometry relative="1" as="geometry">
            <mxPoint x="255" y="420" as="targetPoint" />
          </mxGeometry>
        </mxCell>
        <mxCell id="t_iCc2SrbTNAFNuz0VWI-13" value="&lt;b&gt;0x01 &amp;amp; 0x03/0x0&lt;u&gt;2&lt;/u&gt;&lt;br&gt;&lt;/b&gt;WRSR &amp;amp; QE=1" style="whiteSpace=wrap;html=1;rounded=1;shadow=0;strokeWidth=1;glass=0;" parent="WIyWlLk6GJQsqaUBKTNV-1" vertex="1">
          <mxGeometry x="190" y="340" width="130" height="40" as="geometry" />
        </mxCell>
        <mxCell id="t_iCc2SrbTNAFNuz0VWI-14" value="" style="edgeStyle=orthogonalEdgeStyle;rounded=0;orthogonalLoop=1;jettySize=auto;html=1;fontSize=12;" parent="WIyWlLk6GJQsqaUBKTNV-1" source="t_iCc2SrbTNAFNuz0VWI-15" target="t_iCc2SrbTNAFNuz0VWI-16" edge="1">
          <mxGeometry relative="1" as="geometry" />
        </mxCell>
        <mxCell id="t_iCc2SrbTNAFNuz0VWI-19" value="" style="edgeStyle=orthogonalEdgeStyle;rounded=0;orthogonalLoop=1;jettySize=auto;html=1;entryX=0.5;entryY=0;entryDx=0;entryDy=0;exitX=0.5;exitY=1;exitDx=0;exitDy=0;" parent="WIyWlLk6GJQsqaUBKTNV-1" source="t_iCc2SrbTNAFNuz0VWI-15" target="t_iCc2SrbTNAFNuz0VWI-18" edge="1">
          <mxGeometry relative="1" as="geometry">
            <Array as="points">
              <mxPoint x="255" y="480" />
              <mxPoint x="470" y="480" />
              <mxPoint x="470" y="40" />
              <mxPoint x="565" y="40" />
            </Array>
          </mxGeometry>
        </mxCell>
        <mxCell id="t_iCc2SrbTNAFNuz0VWI-15" value="&lt;b&gt;0x06 &amp;amp; 0x05&lt;br&gt;&lt;/b&gt;Write Enable &amp;amp; RDSR" style="rounded=1;whiteSpace=wrap;html=1;fontSize=12;glass=0;strokeWidth=1;shadow=0;" parent="WIyWlLk6GJQsqaUBKTNV-1" vertex="1">
          <mxGeometry x="190" y="405" width="130" height="40" as="geometry" />
        </mxCell>
        <mxCell id="t_iCc2SrbTNAFNuz0VWI-16" value="&lt;b&gt;0x02&lt;/b&gt;&lt;br&gt;WEL = 1" style="ellipse;whiteSpace=wrap;html=1;rounded=1;shadow=0;strokeWidth=1;glass=0;" parent="WIyWlLk6GJQsqaUBKTNV-1" vertex="1">
          <mxGeometry x="355" y="400" width="90" height="50" as="geometry" />
        </mxCell>
        <mxCell id="t_iCc2SrbTNAFNuz0VWI-23" value="" style="edgeStyle=orthogonalEdgeStyle;rounded=0;orthogonalLoop=1;jettySize=auto;html=1;fontSize=11;" parent="WIyWlLk6GJQsqaUBKTNV-1" source="t_iCc2SrbTNAFNuz0VWI-18" target="R-zWGBTZfVwNPA_6gyD4-32" edge="1">
          <mxGeometry relative="1" as="geometry" />
        </mxCell>
        <mxCell id="t_iCc2SrbTNAFNuz0VWI-18" value="&lt;b&gt;0x32 &amp;amp; &lt;font style=&quot;font-size: 11px&quot;&gt;Addr 3Byte&lt;/font&gt;&lt;/b&gt;&lt;br&gt;Quad Input&lt;br&gt;Page Program" style="rounded=1;whiteSpace=wrap;html=1;fontSize=12;glass=0;strokeWidth=1;shadow=0;" parent="WIyWlLk6GJQsqaUBKTNV-1" vertex="1">
          <mxGeometry x="500" y="65" width="130" height="45" as="geometry" />
        </mxCell>
        <mxCell id="t_iCc2SrbTNAFNuz0VWI-27" value="No" style="edgeStyle=orthogonalEdgeStyle;rounded=0;html=1;jettySize=auto;orthogonalLoop=1;fontSize=11;endArrow=block;endFill=0;endSize=8;strokeWidth=1;shadow=0;labelBackgroundColor=none;" parent="WIyWlLk6GJQsqaUBKTNV-1" source="t_iCc2SrbTNAFNuz0VWI-28" target="t_iCc2SrbTNAFNuz0VWI-30" edge="1">
          <mxGeometry x="-0.5172" y="10" relative="1" as="geometry">
            <mxPoint as="offset" />
          </mxGeometry>
        </mxCell>
        <mxCell id="t_iCc2SrbTNAFNuz0VWI-28" value="&lt;b&gt;Finished Writing&lt;br&gt;All?&lt;br&gt;&lt;/b&gt;" style="rhombus;whiteSpace=wrap;html=1;shadow=0;fontFamily=Helvetica;fontSize=12;align=center;strokeWidth=1;spacing=6;spacingTop=-4;fillColor=#f5f5f5;fontColor=#333333;strokeColor=#666666;" parent="WIyWlLk6GJQsqaUBKTNV-1" vertex="1">
          <mxGeometry x="515" y="240" width="100" height="80" as="geometry" />
        </mxCell>
        <mxCell id="ExJV0qwyHbgAHzHzyb2r-0" style="edgeStyle=orthogonalEdgeStyle;rounded=0;orthogonalLoop=1;jettySize=auto;html=1;entryX=0.5;entryY=0;entryDx=0;entryDy=0;exitX=0.5;exitY=0;exitDx=0;exitDy=0;" edge="1" parent="WIyWlLk6GJQsqaUBKTNV-1" source="t_iCc2SrbTNAFNuz0VWI-30" target="t_iCc2SrbTNAFNuz0VWI-18">
          <mxGeometry relative="1" as="geometry">
            <Array as="points">
              <mxPoint x="685" y="40" />
              <mxPoint x="565" y="40" />
            </Array>
          </mxGeometry>
        </mxCell>
        <mxCell id="t_iCc2SrbTNAFNuz0VWI-30" value="Repeat @&lt;br&gt;Next Address (+100h)" style="rounded=1;whiteSpace=wrap;html=1;fontSize=12;glass=0;strokeWidth=1;shadow=0;" parent="WIyWlLk6GJQsqaUBKTNV-1" vertex="1">
          <mxGeometry x="640" y="155" width="90" height="50" as="geometry" />
        </mxCell>
        <mxCell id="ExJV0qwyHbgAHzHzyb2r-1" value="Done" style="whiteSpace=wrap;html=1;shadow=0;strokeWidth=1;spacing=6;spacingTop=-4;" vertex="1" parent="WIyWlLk6GJQsqaUBKTNV-1">
          <mxGeometry x="537.5" y="350" width="55" height="40" as="geometry" />
        </mxCell>
        <mxCell id="ExJV0qwyHbgAHzHzyb2r-5" style="edgeStyle=orthogonalEdgeStyle;rounded=0;orthogonalLoop=1;jettySize=auto;html=1;entryX=0.5;entryY=0;entryDx=0;entryDy=0;" edge="1" parent="WIyWlLk6GJQsqaUBKTNV-1" source="ExJV0qwyHbgAHzHzyb2r-3" target="R-zWGBTZfVwNPA_6gyD4-1">
          <mxGeometry relative="1" as="geometry" />
        </mxCell>
        <mxCell id="ExJV0qwyHbgAHzHzyb2r-3" value="&lt;b&gt;0xAB&lt;br&gt;&lt;/b&gt;Release Power Down" style="rounded=1;whiteSpace=wrap;html=1;fontSize=12;glass=0;strokeWidth=1;shadow=0;" vertex="1" parent="WIyWlLk6GJQsqaUBKTNV-1">
          <mxGeometry x="190" y="30" width="130" height="40" as="geometry" />
        </mxCell>
        <mxCell id="ExJV0qwyHbgAHzHzyb2r-7" value="Yes" style="rounded=0;html=1;jettySize=auto;orthogonalLoop=1;fontSize=11;endArrow=block;endFill=0;endSize=8;strokeWidth=1;shadow=0;labelBackgroundColor=none;edgeStyle=orthogonalEdgeStyle;entryX=0.5;entryY=0;entryDx=0;entryDy=0;exitX=0.5;exitY=1;exitDx=0;exitDy=0;" edge="1" parent="WIyWlLk6GJQsqaUBKTNV-1" source="t_iCc2SrbTNAFNuz0VWI-28" target="ExJV0qwyHbgAHzHzyb2r-1">
          <mxGeometry x="-0.3333" y="15" relative="1" as="geometry">
            <mxPoint as="offset" />
            <mxPoint x="265" y="350" as="targetPoint" />
            <mxPoint x="565" y="318" as="sourcePoint" />
            <Array as="points">
              <mxPoint x="565" y="330" />
              <mxPoint x="565" y="330" />
            </Array>
          </mxGeometry>
        </mxCell>
      </root>
    </mxGraphModel>
  </diagram>
</mxfile>
